<?xml version="1.0" standalone="no"?>
<!DOCTYPE svg PUBLIC "-//W3C//DTD SVG 20010904//EN"
 "http://www.w3.org/TR/2001/REC-SVG-20010904/DTD/svg10.dtd">
<svg version="1.0" xmlns="http://www.w3.org/2000/svg"
 width="260.000000pt" height="260.000000pt" viewBox="0 0 260.000000 260.000000"
 preserveAspectRatio="xMidYMid meet">
<metadata>
Created by potrace 1.14, written by Peter Selinger 2001-2017
</metadata>
<g transform="translate(0.000000,260.000000) scale(0.100000,-0.100000)"
fill="#000000" stroke="none">
<path d="M0 1300 l0 -1300 1300 0 1300 0 0 1300 0 1300 -1300 0 -1300 0 0
-1300z m1434 672 c27 -20 65 -60 85 -88 20 -28 54 -75 77 -105 65 -87 118
-195 173 -355 28 -82 51 -157 51 -167 0 -15 12 -17 102 -17 89 0 112 4 187 31
101 37 114 47 129 98 20 65 16 98 -15 118 -16 10 -55 40 -88 68 -71 59 -138
87 -159 64 -7 -8 -16 -35 -20 -61 l-6 -48 60 -30 c58 -29 67 -41 54 -74 -8
-20 -57 -21 -73 -2 -6 8 -26 20 -44 27 -55 21 -67 38 -67 88 1 110 47 186 112
184 49 -2 137 -45 193 -95 28 -24 69 -56 92 -71 50 -32 60 -66 43 -142 -21
-93 -44 -133 -92 -154 -119 -53 -192 -74 -279 -79 l-89 -5 6 -26 c30 -133 68
-259 104 -347 27 -64 -24 -91 -60 -31 -22 35 -70 184 -95 292 -25 105 -25 105
-104 105 -38 0 -131 -7 -208 -16 -169 -19 -442 -12 -611 17 -63 10 -122 19
-131 19 -31 0 -41 -57 -41 -238 0 -94 -4 -182 -10 -196 -13 -35 -47 -35 -60 0
-16 42 -12 333 5 390 8 27 15 50 15 52 0 1 -22 2 -49 2 -66 0 -101 14 -101 40
0 28 44 43 107 36 l52 -6 5 52 c3 29 8 86 11 127 6 85 27 165 53 201 28 40
139 140 249 224 92 71 113 82 220 116 65 22 129 39 143 39 14 1 46 -15 74 -37z"/>
<path d="M1249 1906 c-129 -39 -169 -65 -361 -239 -104 -94 -113 -116 -123
-294 l-6 -122 38 -10 c132 -36 601 -48 831 -22 l124 14 -7 36 c-10 52 -81 244
-124 331 -31 64 -98 164 -185 275 -13 17 -36 37 -52 47 -28 15 -33 15 -135
-16z"/>
</g>
</svg>
